<svg width="626" height="360" viewBox="0 0 626 360" fill="none" xmlns="http://www.w3.org/2000/svg">
<g id="opptics-logo">
<path id="Vector" fill-rule="evenodd" clip-rule="evenodd" d="M329.002 301.488C319.927 301.704 309.218 301.438 305.205 300.897C301.193 300.355 293.612 298.822 288.36 297.49C283.109 296.157 273.944 293.09 267.995 290.673C262.045 288.257 253.201 283.896 248.34 280.982C243.479 278.069 236.15 273.174 232.053 270.105C227.956 267.035 220.584 260.699 215.672 256.024C210.759 251.349 202.94 242.793 198.296 237.012C193.651 231.231 187.324 222.45 184.235 217.5C181.146 212.55 177.514 205.8 176.164 202.5C174.249 197.818 173.717 194.744 173.739 188.5C173.759 182.831 174.383 178.885 175.88 174.955C177.042 171.905 180.521 165.38 183.612 160.455C186.703 155.53 192.196 147.675 195.82 143C199.443 138.325 207.071 129.811 212.771 124.08L223.134 113.659L209.668 100.08C202.261 92.611 195.397 84.9254 194.413 83.0004C193.367 80.9524 192.645 77.4153 192.672 74.4744C192.698 71.7101 193.415 68.1101 194.265 66.4744C195.116 64.8387 196.873 62.5093 198.17 61.2981C199.468 60.0868 202.196 58.3993 204.233 57.5481C206.271 56.6968 209.61 56.0004 211.654 56.0004C213.698 56.0004 217.2 56.8895 219.436 57.9762C221.78 59.1153 230.224 66.6896 239.376 75.8625L255.251 91.7729L262.466 88.4849C266.434 86.6765 273.916 83.8444 279.091 82.1913C284.267 80.5382 292.439 78.4074 297.252 77.4562L306.002 75.7267L306.024 54.6135C306.043 36.3567 306.292 32.958 307.867 29.4918C308.868 27.2871 311.324 24.0468 313.323 22.2911C315.323 20.5354 318.572 18.7964 320.544 18.4265C322.515 18.0566 325.953 17.9987 328.183 18.2979C330.501 18.6088 333.793 20.0783 335.87 21.729C337.867 23.317 340.514 26.598 341.752 29.0202C343.875 33.1761 344.002 34.6136 344.002 54.5408V75.6576L354.451 77.8501C360.198 79.056 368.41 81.2096 372.701 82.6359C376.991 84.0622 383.711 86.6988 387.633 88.4949L394.765 91.7606L410.633 75.8102C419.361 67.0374 428.266 58.9428 430.423 57.8222C433.452 56.2484 435.667 55.8804 440.158 56.2053C444.771 56.5389 446.748 57.254 449.736 59.6691C451.807 61.3429 454.353 64.1663 455.395 65.9434C456.593 67.9892 457.287 71.0768 457.287 74.3607C457.287 77.3433 456.536 81.0245 455.519 83.0238C454.546 84.9359 447.726 92.6011 440.363 100.058L426.976 113.615L437.275 124.058C442.939 129.801 450.543 138.325 454.172 143C457.802 147.675 463.3 155.53 466.391 160.455C469.482 165.38 472.962 171.905 474.123 174.955C475.635 178.923 476.236 182.775 476.236 188.5C476.236 194.225 475.635 198.077 474.123 202.046C472.962 205.096 468.938 212.296 465.181 218.046C461.425 223.796 455.655 231.875 452.359 236C449.064 240.125 443.742 246.334 440.533 249.798C437.323 253.262 430.603 259.532 425.6 263.73C420.596 267.929 412.653 273.892 407.949 276.981C403.245 280.07 395.595 284.445 390.949 286.703C386.303 288.96 378.541 292.196 373.701 293.894C368.86 295.591 360.535 297.906 355.201 299.037C348.419 300.475 340.538 301.212 329.002 301.488ZM324.141 263.93C330.78 263.97 339.287 263.335 343.942 262.452C348.43 261.601 355.117 259.978 358.802 258.847C362.487 257.715 369.532 254.774 374.459 252.312C379.385 249.849 386.641 245.604 390.584 242.878C394.527 240.153 401.381 234.552 405.815 230.433C410.249 226.313 416.771 219.468 420.307 215.222C423.844 210.975 429.272 203.606 432.37 198.847C435.467 194.088 438.002 189.35 438.002 188.318C438.002 187.287 435.474 182.631 432.385 177.971C429.296 173.312 424.345 166.523 421.382 162.885C418.419 159.247 412.282 152.704 407.743 148.347C403.204 143.99 397.018 138.608 393.996 136.387C390.974 134.166 385.323 130.469 381.438 128.172C377.553 125.874 370.522 122.44 365.812 120.541C361.103 118.643 352.736 116.169 347.219 115.045C340.357 113.646 333.337 113 325.002 113C316.698 113 309.646 113.646 302.864 115.028C297.391 116.144 289.445 118.425 285.207 120.097C280.969 121.769 274.602 124.721 271.059 126.656C267.515 128.591 261.665 132.268 258.059 134.828C254.452 137.387 247.557 143.269 242.737 147.898C237.916 152.527 231.556 159.281 228.603 162.907C225.65 166.534 220.707 173.312 217.618 177.971C214.529 182.631 212.002 187.287 212.002 188.318C212.002 189.35 214.4 193.863 217.331 198.347C220.262 202.831 225.453 209.962 228.866 214.193C232.279 218.424 238.904 225.471 243.588 229.854C248.272 234.236 255.364 240.075 259.347 242.828C263.329 245.581 270.619 249.838 275.545 252.287C280.471 254.736 286.88 257.515 289.787 258.462C292.693 259.409 298.993 261.011 303.787 262.022C309.181 263.159 316.937 263.886 324.141 263.93ZM324.914 220.988C324.687 220.982 322.588 219.882 320.249 218.545C317.911 217.208 313.394 214.111 310.213 211.663C307.033 209.216 301.7 204.295 298.364 200.728C295.028 197.162 291.288 192.157 290.052 189.605C288.817 187.054 287.573 183.226 287.288 181.1C287.003 178.973 287.32 175.567 287.992 173.531C288.664 171.495 290.621 168.225 292.342 166.266C294.063 164.306 296.926 162.094 298.704 161.351C300.482 160.608 303.766 160 306.002 160C308.237 160 311.591 160.638 313.455 161.416C315.319 162.195 318.296 164.22 320.071 165.916C321.846 167.613 324.044 169 324.955 169C325.866 169 328.303 167.451 330.37 165.557C332.438 163.663 335.729 161.586 337.682 160.941C339.636 160.296 343.419 159.978 346.088 160.235C348.906 160.505 352.433 161.707 354.498 163.101C356.622 164.533 359.106 167.629 360.661 170.78C362.762 175.039 363.147 176.922 362.654 180.524C362.317 182.979 360.855 187.329 359.406 190.19C357.956 193.051 354.234 198.058 351.136 201.317C348.037 204.575 343.027 209.138 340.002 211.457C336.977 213.776 332.437 216.872 329.914 218.337C327.391 219.802 325.141 220.995 324.914 220.988Z" fill="#4F46E5"/>
</g>
</svg>
